<svg width="637" height="231" viewBox="0 0 637 231" fill="none" xmlns="http://www.w3.org/2000/svg">
<path d="M53.4769 82.5863L140.164 114.07V99.8375L94.6641 83.0176L140.164 67.9228V53.9062L53.4769 82.5863Z" fill="#007AFF"/>
<path d="M226.851 82.5863L140.164 114.07V99.8375L185.664 83.0176L140.164 67.9228V53.9062L226.851 82.5863Z" fill="#007AFF"/>
<path d="M54.9844 89.2734V103.721L140.162 134.773V120.541L54.9844 89.2734Z" fill="#003875"/>
<path d="M228.797 87.7656V102.213L140.169 134.775V120.543L228.797 87.7656Z" fill="#003875"/>
<path d="M54.9844 110.195V124.643L140.162 155.695V141.463L54.9844 110.195Z" fill="#003875"/>
<path d="M228.797 108.68V123.128L140.169 155.689V141.457L228.797 108.68Z" fill="#003875"/>
<path d="M54.9844 131.328V145.776L140.162 176.828V162.596L54.9844 131.328Z" fill="#003875"/>
<path d="M228.797 129.812V144.26L140.169 176.822V162.59L228.797 129.812Z" fill="#003875"/>
<path d="M269.861 131.381C267.3 131.381 264.896 130.906 262.65 129.957C260.436 128.977 258.491 127.633 256.815 125.925C255.171 124.185 253.874 122.161 252.925 119.853C252.008 117.544 251.549 115.045 251.549 112.357C251.549 109.7 252.008 107.233 252.925 104.956C253.874 102.647 255.171 100.639 256.815 98.9312C258.491 97.1917 260.436 95.8317 262.65 94.8513C264.864 93.8708 267.268 93.3806 269.861 93.3806C272.297 93.3806 274.384 93.6969 276.124 94.3294C277.895 94.962 279.666 96.0057 281.437 97.4605C281.69 97.6503 281.88 97.8559 282.006 98.0772C282.164 98.267 282.259 98.4726 282.291 98.694C282.354 98.8837 282.386 99.1209 282.386 99.4056C282.386 100.007 282.164 100.513 281.722 100.924C281.31 101.303 280.804 101.525 280.203 101.588C279.603 101.619 279.017 101.414 278.448 100.971C277.278 99.9591 276.06 99.1842 274.795 98.6465C273.562 98.1089 271.917 97.84 269.861 97.84C267.995 97.84 266.24 98.2196 264.595 98.9786C262.951 99.7377 261.496 100.781 260.231 102.11C258.997 103.438 258.033 104.988 257.337 106.759C256.641 108.498 256.293 110.364 256.293 112.357C256.293 114.381 256.641 116.279 257.337 118.05C258.033 119.789 258.997 121.323 260.231 122.652C261.496 123.98 262.951 125.024 264.595 125.783C266.24 126.51 267.995 126.874 269.861 126.874C271.474 126.874 272.992 126.605 274.416 126.067C275.871 125.498 277.262 124.723 278.59 123.743C279.16 123.332 279.713 123.158 280.251 123.221C280.82 123.252 281.295 123.474 281.674 123.885C282.054 124.265 282.243 124.802 282.243 125.498C282.243 125.814 282.18 126.131 282.054 126.447C281.927 126.731 281.737 127 281.484 127.253C279.776 128.613 277.942 129.641 275.981 130.337C274.052 131.033 272.012 131.381 269.861 131.381ZM293.408 130.906C292.523 130.906 291.843 130.527 291.368 129.768C290.894 129.009 290.846 128.202 291.226 127.348L304.557 95.5154C305.031 94.4085 305.806 93.855 306.881 93.855C308.02 93.855 308.795 94.4085 309.206 95.5154L322.584 127.443C322.932 128.329 322.869 129.135 322.395 129.863C321.952 130.558 321.272 130.906 320.355 130.906C319.88 130.906 319.422 130.78 318.979 130.527C318.568 130.242 318.267 129.863 318.077 129.388L306.312 100.165H307.641L295.685 129.388C295.464 129.894 295.132 130.274 294.689 130.527C294.278 130.78 293.851 130.906 293.408 130.906ZM295.923 122.746L297.82 118.667H316.417L318.315 122.746H295.923ZM335.447 130.906C334.751 130.906 334.166 130.669 333.691 130.195C333.217 129.72 332.98 129.135 332.98 128.439V96.3219C332.98 95.5945 333.217 95.0094 333.691 94.5666C334.166 94.0922 334.751 93.855 335.447 93.855H343.986C346.358 93.855 348.461 94.3611 350.296 95.3731C352.13 96.3536 353.553 97.7135 354.565 99.453C355.609 101.193 356.131 103.217 356.131 105.525C356.131 107.676 355.609 109.59 354.565 111.266C353.553 112.942 352.13 114.255 350.296 115.203C348.461 116.152 346.358 116.627 343.986 116.627H337.914V128.439C337.914 129.135 337.676 129.72 337.202 130.195C336.759 130.669 336.174 130.906 335.447 130.906ZM355.135 130.906C354.692 130.906 354.281 130.811 353.901 130.622C353.553 130.432 353.253 130.131 353 129.72L344.46 115.962L349.252 114.587L357.032 127.111C357.602 128.028 357.681 128.898 357.269 129.72C356.858 130.511 356.147 130.906 355.135 130.906ZM337.914 112.072H343.986C345.441 112.072 346.722 111.803 347.829 111.266C348.936 110.696 349.805 109.922 350.438 108.941C351.071 107.929 351.387 106.791 351.387 105.525C351.387 104.134 351.071 102.9 350.438 101.825C349.805 100.75 348.936 99.9116 347.829 99.3107C346.722 98.7098 345.441 98.4093 343.986 98.4093H337.914V112.072ZM370.166 130.906C369.47 130.906 368.885 130.669 368.41 130.195C367.936 129.72 367.699 129.135 367.699 128.439V96.3219C367.699 95.5945 367.936 95.0094 368.41 94.5666C368.885 94.0922 369.47 93.855 370.166 93.855H378.752C381.472 93.855 383.939 94.3136 386.153 95.2308C388.399 96.1164 390.344 97.3973 391.988 99.0735C393.633 100.718 394.898 102.663 395.784 104.909C396.669 107.154 397.112 109.637 397.112 112.357C397.112 115.077 396.669 117.575 395.784 119.853C394.898 122.098 393.633 124.059 391.988 125.735C390.344 127.38 388.399 128.661 386.153 129.578C383.939 130.463 381.472 130.906 378.752 130.906H370.166ZM372.632 126.542H378.752C381.409 126.542 383.749 125.941 385.774 124.739C387.829 123.505 389.442 121.829 390.613 119.71C391.783 117.56 392.368 115.108 392.368 112.357C392.368 109.574 391.783 107.123 390.613 105.004C389.442 102.885 387.829 101.224 385.774 100.022C383.749 98.8205 381.409 98.2196 378.752 98.2196H372.632V126.542ZM409.077 130.906C408.381 130.906 407.796 130.669 407.321 130.195C406.847 129.72 406.61 129.135 406.61 128.439V96.3219C406.61 95.5945 406.847 95.0094 407.321 94.5666C407.796 94.0922 408.381 93.855 409.077 93.855H430.52C431.247 93.855 431.832 94.0764 432.275 94.5192C432.718 94.9303 432.939 95.4838 432.939 96.1796C432.939 96.8438 432.718 97.3814 432.275 97.7926C431.832 98.2038 431.247 98.4093 430.52 98.4093H411.544V109.937H425.159C425.886 109.937 426.472 110.159 426.914 110.602C427.357 111.013 427.579 111.55 427.579 112.215C427.579 112.879 427.357 113.432 426.914 113.875C426.472 114.286 425.886 114.492 425.159 114.492H411.544V128.439C411.544 129.135 411.306 129.72 410.832 130.195C410.358 130.669 409.772 130.906 409.077 130.906ZM446.413 130.906C445.717 130.906 445.132 130.669 444.657 130.195C444.214 129.72 443.993 129.135 443.993 128.439V96.3219C443.993 95.6261 444.23 95.041 444.705 94.5666C445.179 94.0922 445.748 93.855 446.413 93.855C447.108 93.855 447.693 94.0922 448.168 94.5666C448.642 95.041 448.879 95.6261 448.879 96.3219V125.972H466.053C466.749 125.972 467.334 126.21 467.808 126.684C468.283 127.158 468.52 127.744 468.52 128.439C468.52 129.135 468.283 129.72 467.808 130.195C467.334 130.669 466.749 130.906 466.053 130.906H446.413ZM492.966 131.381C490.182 131.381 487.636 130.922 485.328 130.005C483.019 129.056 481.026 127.744 479.35 126.067C477.705 124.359 476.425 122.351 475.507 120.042C474.59 117.702 474.132 115.14 474.132 112.357C474.132 109.574 474.59 107.028 475.507 104.719C476.425 102.41 477.705 100.418 479.35 98.7414C481.026 97.0335 483.019 95.721 485.328 94.8038C487.636 93.855 490.182 93.3806 492.966 93.3806C495.749 93.3806 498.279 93.855 500.556 94.8038C502.865 95.721 504.857 97.0335 506.534 98.7414C508.21 100.418 509.507 102.41 510.424 104.719C511.341 107.028 511.8 109.574 511.8 112.357C511.8 115.14 511.341 117.702 510.424 120.042C509.507 122.351 508.21 124.359 506.534 126.067C504.857 127.744 502.865 129.056 500.556 130.005C498.279 130.922 495.749 131.381 492.966 131.381ZM492.966 126.921C495.021 126.921 496.903 126.558 498.611 125.83C500.351 125.071 501.853 124.043 503.118 122.746C504.383 121.418 505.348 119.868 506.012 118.097C506.708 116.326 507.056 114.413 507.056 112.357C507.056 110.301 506.708 108.388 506.012 106.617C505.348 104.845 504.383 103.312 503.118 102.015C501.853 100.686 500.351 99.6586 498.611 98.9312C496.903 98.2038 495.021 97.84 492.966 97.84C490.91 97.84 489.012 98.2038 487.273 98.9312C485.565 99.6586 484.078 100.686 482.813 102.015C481.58 103.312 480.615 104.845 479.919 106.617C479.224 108.388 478.876 110.301 478.876 112.357C478.876 114.413 479.224 116.326 479.919 118.097C480.615 119.868 481.58 121.418 482.813 122.746C484.078 124.043 485.565 125.071 487.273 125.83C489.012 126.558 490.91 126.921 492.966 126.921ZM531.684 130.906C531.114 130.906 530.608 130.732 530.165 130.384C529.723 130.037 529.406 129.562 529.217 128.961L519.681 97.2708C519.365 96.2271 519.381 95.4047 519.729 94.8038C520.108 94.1713 520.709 93.855 521.531 93.855C522.069 93.855 522.559 94.0132 523.002 94.3294C523.445 94.6141 523.761 95.0727 523.951 95.7052L532.253 124.644H531.209L538.895 95.9898C539.021 95.5154 539.306 95.1201 539.749 94.8038C540.191 94.4876 540.697 94.3294 541.267 94.3294C541.773 94.3294 542.247 94.4717 542.69 94.7564C543.164 95.0094 543.465 95.4047 543.591 95.9424L551.324 124.644H550.375L558.725 95.468C559.041 94.3927 559.848 93.855 561.144 93.855C562.03 93.855 562.599 94.2029 562.852 94.8987C563.105 95.5629 563.105 96.3536 562.852 97.2708L553.317 128.914C553.095 129.515 552.763 130.005 552.32 130.384C551.909 130.732 551.419 130.906 550.85 130.906C550.249 130.906 549.727 130.716 549.284 130.337C548.873 129.957 548.572 129.499 548.383 128.961L540.745 99.453H541.883L534.15 128.914C533.929 129.515 533.597 130.005 533.154 130.384C532.743 130.732 532.253 130.906 531.684 130.906Z" fill="black"/>
</svg>
