<svg width="147" height="44" viewBox="0 0 147 44" fill="none" xmlns="http://www.w3.org/2000/svg">
<path d="M29 24C28.7167 24 28.4793 23.904 28.288 23.712C28.0967 23.52 28.0007 23.2827 28 23C27.9993 22.7173 28.0953 22.48 28.288 22.288C28.4807 22.096 28.718 22 29 22H34C34.2833 22 34.521 22.096 34.713 22.288C34.905 22.48 35.0007 22.7173 35 23C34.9993 23.2827 34.9033 23.5203 34.712 23.713C34.5207 23.9057 34.2833 24.0013 34 24H29ZM29 20C28.7167 20 28.4793 19.904 28.288 19.712C28.0967 19.52 28.0007 19.2827 28 19C27.9993 18.7173 28.0953 18.48 28.288 18.288C28.4807 18.096 28.718 18 29 18H38C38.2833 18 38.521 18.096 38.713 18.288C38.905 18.48 39.0007 18.7173 39 19C38.9993 19.2827 38.9033 19.5203 38.712 19.713C38.5207 19.9057 38.2833 20.0013 38 20H29ZM29 16C28.7167 16 28.4793 15.904 28.288 15.712C28.0967 15.52 28.0007 15.2827 28 15C27.9993 14.7173 28.0953 14.48 28.288 14.288C28.4807 14.096 28.718 14 29 14H38C38.2833 14 38.521 14.096 38.713 14.288C38.905 14.48 39.0007 14.7173 39 15C38.9993 15.2827 38.9033 15.5203 38.712 15.713C38.5207 15.9057 38.2833 16.0013 38 16H29ZM37 29V27.35C37 27.2167 37.025 27.0877 37.075 26.963C37.125 26.8383 37.2 26.7257 37.3 26.625L42.525 21.425C42.675 21.275 42.8417 21.1667 43.025 21.1C43.2083 21.0333 43.3917 21 43.575 21C43.775 21 43.9667 21.0377 44.15 21.113C44.3333 21.1883 44.5 21.3007 44.65 21.45L45.575 22.375C45.7083 22.525 45.8127 22.6917 45.888 22.875C45.9633 23.0583 46.0007 23.2417 46 23.425C45.9993 23.6083 45.966 23.796 45.9 23.988C45.834 24.18 45.7257 24.3507 45.575 24.5L40.375 29.7C40.275 29.8 40.1627 29.875 40.038 29.925C39.9133 29.975 39.784 30 39.65 30H38C37.7167 30 37.4793 29.9043 37.288 29.713C37.0967 29.5217 37.0007 29.284 37 29ZM38.5 28.5H39.45L42.475 25.45L42.025 24.975L41.55 24.525L38.5 27.55V28.5ZM42.025 24.975L41.55 24.525L42.475 25.45L42.025 24.975Z" fill="#707075"/>
<path d="M59.4091 27.5V15.8636H66.4318V17.1136H60.8182V21.0455H66.0682V22.2955H60.8182V26.25H66.5227V27.5H59.4091ZM72.0852 27.6818C71.358 27.6818 70.7159 27.4981 70.1591 27.1307C69.6023 26.7595 69.1667 26.2367 68.8523 25.5625C68.5379 24.8845 68.3807 24.0833 68.3807 23.1591C68.3807 22.2424 68.5379 21.447 68.8523 20.7727C69.1667 20.0985 69.6042 19.5777 70.1648 19.2102C70.7254 18.8428 71.3731 18.6591 72.108 18.6591C72.6761 18.6591 73.125 18.7538 73.4545 18.9432C73.7879 19.1288 74.0417 19.3409 74.2159 19.5795C74.3939 19.8144 74.5322 20.0076 74.6307 20.1591H74.7443V15.8636H76.0852V27.5H74.7898V26.1591H74.6307C74.5322 26.3182 74.392 26.5189 74.2102 26.7614C74.0284 27 73.7689 27.214 73.4318 27.4034C73.0947 27.589 72.6458 27.6818 72.0852 27.6818ZM72.267 26.4773C72.8049 26.4773 73.2595 26.3371 73.6307 26.0568C74.0019 25.7727 74.2841 25.3807 74.4773 24.8807C74.6705 24.3769 74.767 23.7955 74.767 23.1364C74.767 22.4848 74.6723 21.9148 74.483 21.4261C74.2936 20.9337 74.0133 20.5511 73.642 20.2784C73.2708 20.0019 72.8125 19.8636 72.267 19.8636C71.6989 19.8636 71.2254 20.0095 70.8466 20.3011C70.4716 20.589 70.1894 20.9811 70 21.4773C69.8144 21.9697 69.7216 22.5227 69.7216 23.1364C69.7216 23.7576 69.8163 24.322 70.0057 24.8295C70.1989 25.3333 70.483 25.7348 70.858 26.0341C71.2367 26.3295 71.7064 26.4773 72.267 26.4773ZM78.7273 27.5V18.7727H80.0682V27.5H78.7273ZM79.4091 17.3182C79.1477 17.3182 78.9223 17.2292 78.733 17.0511C78.5473 16.8731 78.4545 16.6591 78.4545 16.4091C78.4545 16.1591 78.5473 15.9451 78.733 15.767C78.9223 15.589 79.1477 15.5 79.4091 15.5C79.6705 15.5 79.8939 15.589 80.0795 15.767C80.2689 15.9451 80.3636 16.1591 80.3636 16.4091C80.3636 16.6591 80.2689 16.8731 80.0795 17.0511C79.8939 17.2292 79.6705 17.3182 79.4091 17.3182ZM86.3196 18.7727V19.9091H81.7969V18.7727H86.3196ZM83.1151 16.6818H84.456V25C84.456 25.3788 84.5109 25.6629 84.6207 25.8523C84.7344 26.0379 84.8783 26.1629 85.0526 26.2273C85.2306 26.2879 85.4181 26.3182 85.6151 26.3182C85.7628 26.3182 85.884 26.3106 85.9787 26.2955C86.0734 26.2765 86.1491 26.2614 86.206 26.25L86.4787 27.4545C86.3878 27.4886 86.2609 27.5227 86.098 27.5568C85.9351 27.5947 85.7287 27.6136 85.4787 27.6136C85.0999 27.6136 84.7287 27.5322 84.3651 27.3693C84.0052 27.2064 83.706 26.9583 83.4673 26.625C83.2325 26.2917 83.1151 25.8712 83.1151 25.3636V16.6818ZM91.7884 27.6818C91.0005 27.6818 90.3092 27.4943 89.7145 27.1193C89.1236 26.7443 88.6615 26.2197 88.3281 25.5455C87.9986 24.8712 87.8338 24.0833 87.8338 23.1818C87.8338 22.2727 87.9986 21.4792 88.3281 20.8011C88.6615 20.1231 89.1236 19.5966 89.7145 19.2216C90.3092 18.8466 91.0005 18.6591 91.7884 18.6591C92.5762 18.6591 93.2656 18.8466 93.8565 19.2216C94.4512 19.5966 94.9134 20.1231 95.2429 20.8011C95.5762 21.4792 95.7429 22.2727 95.7429 23.1818C95.7429 24.0833 95.5762 24.8712 95.2429 25.5455C94.9134 26.2197 94.4512 26.7443 93.8565 27.1193C93.2656 27.4943 92.5762 27.6818 91.7884 27.6818ZM91.7884 26.4773C92.3868 26.4773 92.8793 26.3239 93.2656 26.017C93.652 25.7102 93.938 25.3068 94.1236 24.8068C94.3092 24.3068 94.402 23.7652 94.402 23.1818C94.402 22.5985 94.3092 22.0549 94.1236 21.5511C93.938 21.0473 93.652 20.6402 93.2656 20.3295C92.8793 20.0189 92.3868 19.8636 91.7884 19.8636C91.1899 19.8636 90.6974 20.0189 90.3111 20.3295C89.9247 20.6402 89.6387 21.0473 89.4531 21.5511C89.2675 22.0549 89.1747 22.5985 89.1747 23.1818C89.1747 23.7652 89.2675 24.3068 89.4531 24.8068C89.6387 25.3068 89.9247 25.7102 90.3111 26.017C90.6974 26.3239 91.1899 26.4773 91.7884 26.4773ZM97.7898 27.5V18.7727H99.0852V20.0909H99.1761C99.3352 19.6591 99.6231 19.3087 100.04 19.0398C100.456 18.7708 100.926 18.6364 101.449 18.6364C101.547 18.6364 101.67 18.6383 101.818 18.642C101.966 18.6458 102.078 18.6515 102.153 18.6591V20.0227C102.108 20.0114 102.004 19.9943 101.841 19.9716C101.682 19.9451 101.513 19.9318 101.335 19.9318C100.911 19.9318 100.532 20.0208 100.199 20.1989C99.8693 20.3731 99.608 20.6155 99.4148 20.9261C99.2254 21.233 99.1307 21.5833 99.1307 21.9773V27.5H97.7898Z" fill="#707075"/>
</svg>
