<svg width="44" height="44" viewBox="0 0 44 44" fill="none" xmlns="http://www.w3.org/2000/svg">
<rect width="44" height="44" rx="22" fill="#007AFF"/>
<path d="M30 14H14C12.9 14 12.01 14.9 12.01 16L12 28C12 29.1 12.9 30 14 30H30C31.1 30 32 29.1 32 28V16C32 14.9 31.1 14 30 14ZM29.6 18.25L22.53 22.67C22.21 22.87 21.79 22.87 21.47 22.67L14.4 18.25C14.2997 18.1937 14.2119 18.1177 14.1419 18.0265C14.0719 17.9352 14.0211 17.8308 13.9926 17.7194C13.9641 17.608 13.9585 17.4919 13.9762 17.3783C13.9938 17.2647 14.0343 17.1558 14.0953 17.0583C14.1562 16.9608 14.2363 16.8767 14.3307 16.811C14.4251 16.7453 14.5319 16.6995 14.6445 16.6763C14.7571 16.6531 14.8733 16.653 14.986 16.6759C15.0986 16.6989 15.2055 16.7445 15.3 16.81L22 21L28.7 16.81C28.7945 16.7445 28.9014 16.6989 29.014 16.6759C29.1267 16.653 29.2429 16.6531 29.3555 16.6763C29.4681 16.6995 29.5749 16.7453 29.6693 16.811C29.7637 16.8767 29.8438 16.9608 29.9047 17.0583C29.9657 17.1558 30.0062 17.2647 30.0238 17.3783C30.0415 17.4919 30.0359 17.608 30.0074 17.7194C29.9789 17.8308 29.9281 17.9352 29.8581 18.0265C29.7881 18.1177 29.7003 18.1937 29.6 18.25Z" fill="white"/>
</svg>
