<svg width="187" height="44" viewBox="0 0 187 44" fill="none" xmlns="http://www.w3.org/2000/svg">
<path d="M36 28C41.523 28 46 22 46 22C46 22 41.523 16 36 16C30.477 16 26 22 26 22C26 22 30.477 28 36 28Z" stroke="#707075" stroke-width="2" stroke-linejoin="round"/>
<path d="M36 24.5C36.663 24.5 37.2989 24.2366 37.7678 23.7678C38.2366 23.2989 38.5 22.663 38.5 22C38.5 21.337 38.2366 20.7011 37.7678 20.2322C37.2989 19.7634 36.663 19.5 36 19.5C35.337 19.5 34.7011 19.7634 34.2322 20.2322C33.7634 20.7011 33.5 21.337 33.5 22C33.5 22.663 33.7634 23.2989 34.2322 23.7678C34.7011 24.2366 35.337 24.5 36 24.5Z" stroke="#707075" stroke-width="2" stroke-linejoin="round"/>
<path d="M59.4091 27.5V15.8636H63.3409C64.2538 15.8636 65 16.0284 65.5795 16.358C66.1629 16.6837 66.5947 17.125 66.875 17.6818C67.1553 18.2386 67.2955 18.8598 67.2955 19.5455C67.2955 20.2311 67.1553 20.8542 66.875 21.4148C66.5985 21.9754 66.1705 22.4223 65.5909 22.7557C65.0114 23.0852 64.2689 23.25 63.3636 23.25H60.5455V22H63.3182C63.9432 22 64.4451 21.892 64.8239 21.6761C65.2027 21.4602 65.4773 21.1686 65.6477 20.8011C65.822 20.4299 65.9091 20.0114 65.9091 19.5455C65.9091 19.0795 65.822 18.6629 65.6477 18.2955C65.4773 17.928 65.2008 17.6402 64.8182 17.4318C64.4356 17.2197 63.928 17.1136 63.2955 17.1136H60.8182V27.5H59.4091ZM69.3835 27.5V18.7727H70.679V20.0909H70.7699C70.929 19.6591 71.2169 19.3087 71.6335 19.0398C72.0502 18.7708 72.5199 18.6364 73.0426 18.6364C73.1411 18.6364 73.2642 18.6383 73.4119 18.642C73.5597 18.6458 73.6714 18.6515 73.7472 18.6591V20.0227C73.7017 20.0114 73.5975 19.9943 73.4347 19.9716C73.2756 19.9451 73.107 19.9318 72.929 19.9318C72.5047 19.9318 72.1259 20.0208 71.7926 20.1989C71.4631 20.3731 71.2017 20.6155 71.0085 20.9261C70.8191 21.233 70.7244 21.5833 70.7244 21.9773V27.5H69.3835ZM78.7301 27.6818C77.8892 27.6818 77.1638 27.4962 76.554 27.125C75.9479 26.75 75.4801 26.2273 75.1506 25.5568C74.8248 24.8826 74.6619 24.0985 74.6619 23.2045C74.6619 22.3106 74.8248 21.5227 75.1506 20.8409C75.4801 20.1553 75.9384 19.6212 76.5256 19.2386C77.1165 18.8523 77.8059 18.6591 78.5938 18.6591C79.0483 18.6591 79.4972 18.7348 79.9403 18.8864C80.3835 19.0379 80.7869 19.2841 81.1506 19.625C81.5142 19.9621 81.804 20.4091 82.0199 20.9659C82.2358 21.5227 82.3438 22.2083 82.3438 23.0227V23.5909H75.6165V22.4318H80.9801C80.9801 21.9394 80.8816 21.5 80.6847 21.1136C80.4915 20.7273 80.215 20.4223 79.8551 20.1989C79.4991 19.9754 79.0786 19.8636 78.5938 19.8636C78.0597 19.8636 77.5975 19.9962 77.2074 20.2614C76.821 20.5227 76.5237 20.8636 76.3153 21.2841C76.107 21.7045 76.0028 22.1553 76.0028 22.6364V23.4091C76.0028 24.0682 76.1165 24.6269 76.3438 25.0852C76.5748 25.5398 76.8949 25.8864 77.304 26.125C77.7131 26.3598 78.1884 26.4773 78.7301 26.4773C79.0824 26.4773 79.4006 26.428 79.6847 26.3295C79.9725 26.2273 80.2206 26.0758 80.429 25.875C80.6373 25.6705 80.7983 25.4167 80.9119 25.1136L82.2074 25.4773C82.071 25.9167 81.8419 26.303 81.5199 26.6364C81.1979 26.9659 80.8002 27.2235 80.3267 27.4091C79.8532 27.5909 79.321 27.6818 78.7301 27.6818ZM91.2543 18.7727L88.027 27.5H86.6634L83.4361 18.7727H84.8906L87.2997 25.7273H87.3906L89.7997 18.7727H91.2543ZM93.0241 27.5V18.7727H94.3651V27.5H93.0241ZM93.706 17.3182C93.4446 17.3182 93.2192 17.2292 93.0298 17.0511C92.8442 16.8731 92.7514 16.6591 92.7514 16.4091C92.7514 16.1591 92.8442 15.9451 93.0298 15.767C93.2192 15.589 93.4446 15.5 93.706 15.5C93.9673 15.5 94.1908 15.589 94.3764 15.767C94.5658 15.9451 94.6605 16.1591 94.6605 16.4091C94.6605 16.6591 94.5658 16.8731 94.3764 17.0511C94.1908 17.2292 93.9673 17.3182 93.706 17.3182ZM100.48 27.6818C99.6392 27.6818 98.9138 27.4962 98.304 27.125C97.6979 26.75 97.2301 26.2273 96.9006 25.5568C96.5748 24.8826 96.4119 24.0985 96.4119 23.2045C96.4119 22.3106 96.5748 21.5227 96.9006 20.8409C97.2301 20.1553 97.6884 19.6212 98.2756 19.2386C98.8665 18.8523 99.5559 18.6591 100.344 18.6591C100.798 18.6591 101.247 18.7348 101.69 18.8864C102.134 19.0379 102.537 19.2841 102.901 19.625C103.264 19.9621 103.554 20.4091 103.77 20.9659C103.986 21.5227 104.094 22.2083 104.094 23.0227V23.5909H97.3665V22.4318H102.73C102.73 21.9394 102.632 21.5 102.435 21.1136C102.241 20.7273 101.965 20.4223 101.605 20.1989C101.249 19.9754 100.829 19.8636 100.344 19.8636C99.8097 19.8636 99.3475 19.9962 98.9574 20.2614C98.571 20.5227 98.2737 20.8636 98.0653 21.2841C97.857 21.7045 97.7528 22.1553 97.7528 22.6364V23.4091C97.7528 24.0682 97.8665 24.6269 98.0938 25.0852C98.3248 25.5398 98.6449 25.8864 99.054 26.125C99.4631 26.3598 99.9384 26.4773 100.48 26.4773C100.832 26.4773 101.151 26.428 101.435 26.3295C101.723 26.2273 101.971 26.0758 102.179 25.875C102.387 25.6705 102.548 25.4167 102.662 25.1136L103.957 25.4773C103.821 25.9167 103.592 26.303 103.27 26.6364C102.948 26.9659 102.55 27.2235 102.077 27.4091C101.603 27.5909 101.071 27.6818 100.48 27.6818ZM108.111 27.5L105.452 18.7727H106.861L108.747 25.4545H108.838L110.702 18.7727H112.134L113.974 25.4318H114.065L115.952 18.7727H117.361L114.702 27.5H113.384L111.474 20.7955H111.338L109.429 27.5H108.111Z" fill="#707075"/>
</svg>
