<svg width="44" height="44" viewBox="0 0 44 44" fill="none" xmlns="http://www.w3.org/2000/svg">
<rect width="44" height="44" rx="22" fill="#007AFF"/>
<path d="M14.799 16.0016H10.935C10.491 16.0016 10.047 16.3856 10.107 17.0096L11.979 28.9976C11.979 28.9976 14.199 20.1656 14.631 18.0416C14.763 17.4056 15.363 17.2016 15.807 17.2016H21.999C21.999 17.2016 21.159 14.7056 21.075 14.4296C20.931 13.9016 20.667 13.6016 20.139 13.6016H16.167C15.735 13.6016 15.327 13.8776 15.207 14.3696C15.099 14.8496 14.799 16.0016 14.799 16.0016ZM20.655 16.0016H15.855C15.855 16.0016 16.359 14.8016 16.899 14.8016H19.455C20.031 14.8016 20.655 16.0016 20.655 16.0016ZM13.203 29.5016C12.831 30.0656 12.291 30.4016 11.691 30.4016H30.567C31.215 30.4016 31.671 30.0296 31.803 29.4056C32.331 26.7776 33.819 19.2776 33.819 19.2776C33.903 18.6776 33.459 18.4016 33.075 18.4016H29.199V16.6376C29.199 16.4456 28.887 16.0016 28.407 16.0016H23.895C23.271 16.0016 22.851 16.6976 22.851 16.6976L21.999 18.4016H16.707C16.323 18.4016 15.951 18.6296 15.879 19.0016C15.879 19.0016 13.971 27.0416 13.815 27.7976C13.731 28.2416 13.551 28.9856 13.203 29.5016ZM28.455 18.4016H23.199C23.199 18.4016 23.895 17.2016 24.555 17.2016H27.303C28.155 17.2016 28.455 18.4016 28.455 18.4016Z" fill="white"/>
</svg>
