<svg width="40" height="40" viewBox="0 0 40 40" fill="none" xmlns="http://www.w3.org/2000/svg">
<rect width="40" height="40" rx="10" fill="url(#paint0_linear_261_542)"/>
<rect width="40" height="40" rx="10" fill="#D9ECF2"/>
<path d="M19.9974 19.5807C19.4449 19.5807 18.915 19.3612 18.5243 18.9705C18.1336 18.5798 17.9141 18.0499 17.9141 17.4974C17.9141 16.9449 18.1336 16.415 18.5243 16.0243C18.915 15.6336 19.4449 15.4141 19.9974 15.4141C20.5499 15.4141 21.0798 15.6336 21.4705 16.0243C21.8612 16.415 22.0807 16.9449 22.0807 17.4974C22.0807 17.771 22.0268 18.0419 21.9221 18.2947C21.8174 18.5474 21.664 18.7771 21.4705 18.9705C21.2771 19.164 21.0474 19.3174 20.7947 19.4221C20.5419 19.5268 20.271 19.5807 19.9974 19.5807ZM19.9974 11.6641C18.4503 11.6641 16.9666 12.2786 15.8726 13.3726C14.7786 14.4666 14.1641 15.9503 14.1641 17.4974C14.1641 21.8724 19.9974 28.3307 19.9974 28.3307C19.9974 28.3307 25.8307 21.8724 25.8307 17.4974C25.8307 15.9503 25.2161 14.4666 24.1222 13.3726C23.0282 12.2786 21.5445 11.6641 19.9974 11.6641Z" fill="black"/>
<defs>
<linearGradient id="paint0_linear_261_542" x1="20" y1="0" x2="20" y2="40" gradientUnits="userSpaceOnUse">
<stop stop-color="#D9ECF2"/>
<stop offset="1" stop-color="#70A6C0"/>
</linearGradient>
</defs>
</svg>
