<svg width="187" height="44" viewBox="0 0 187 44" fill="none" xmlns="http://www.w3.org/2000/svg">
<path d="M29 31C28.45 31 27.9793 30.8043 27.588 30.413C27.1967 30.0217 27.0007 29.5507 27 29V15C27 14.45 27.196 13.9793 27.588 13.588C27.98 13.1967 28.4507 13.0007 29 13H35C35.2833 13 35.521 13.096 35.713 13.288C35.905 13.48 36.0007 13.7173 36 14C35.9993 14.2827 35.9033 14.5203 35.712 14.713C35.5207 14.9057 35.2833 15.0013 35 15H29V29H35C35.2833 29 35.521 29.096 35.713 29.288C35.905 29.48 36.0007 29.7173 36 30C35.9993 30.2827 35.9033 30.5203 35.712 30.713C35.5207 30.9057 35.2833 31.0013 35 31H29ZM41.175 23H34C33.7167 23 33.4793 22.904 33.288 22.712C33.0967 22.52 33.0007 22.2827 33 22C32.9993 21.7173 33.0953 21.48 33.288 21.288C33.4807 21.096 33.718 21 34 21H41.175L39.3 19.125C39.1167 18.9417 39.025 18.7167 39.025 18.45C39.025 18.1833 39.1167 17.95 39.3 17.75C39.4833 17.55 39.7167 17.4457 40 17.437C40.2833 17.4283 40.525 17.5243 40.725 17.725L44.3 21.3C44.5 21.5 44.6 21.7333 44.6 22C44.6 22.2667 44.5 22.5 44.3 22.7L40.725 26.275C40.525 26.475 40.2877 26.571 40.013 26.563C39.7383 26.555 39.5007 26.4507 39.3 26.25C39.1167 26.05 39.0293 25.8127 39.038 25.538C39.0467 25.2633 39.1423 25.034 39.325 24.85L41.175 23Z" fill="#707075"/>
<path d="M59.4091 27.5V15.8636H60.8182V26.25H66.2273V27.5H59.4091ZM71.7727 27.6818C70.9848 27.6818 70.2936 27.4943 69.6989 27.1193C69.108 26.7443 68.6458 26.2197 68.3125 25.5455C67.983 24.8712 67.8182 24.0833 67.8182 23.1818C67.8182 22.2727 67.983 21.4792 68.3125 20.8011C68.6458 20.1231 69.108 19.5966 69.6989 19.2216C70.2936 18.8466 70.9848 18.6591 71.7727 18.6591C72.5606 18.6591 73.25 18.8466 73.8409 19.2216C74.4356 19.5966 74.8977 20.1231 75.2273 20.8011C75.5606 21.4792 75.7273 22.2727 75.7273 23.1818C75.7273 24.0833 75.5606 24.8712 75.2273 25.5455C74.8977 26.2197 74.4356 26.7443 73.8409 27.1193C73.25 27.4943 72.5606 27.6818 71.7727 27.6818ZM71.7727 26.4773C72.3712 26.4773 72.8636 26.3239 73.25 26.017C73.6364 25.7102 73.9223 25.3068 74.108 24.8068C74.2936 24.3068 74.3864 23.7652 74.3864 23.1818C74.3864 22.5985 74.2936 22.0549 74.108 21.5511C73.9223 21.0473 73.6364 20.6402 73.25 20.3295C72.8636 20.0189 72.3712 19.8636 71.7727 19.8636C71.1742 19.8636 70.6818 20.0189 70.2955 20.3295C69.9091 20.6402 69.6231 21.0473 69.4375 21.5511C69.2519 22.0549 69.1591 22.5985 69.1591 23.1818C69.1591 23.7652 69.2519 24.3068 69.4375 24.8068C69.6231 25.3068 69.9091 25.7102 70.2955 26.017C70.6818 26.3239 71.1742 26.4773 71.7727 26.4773ZM81.2969 30.9545C80.6491 30.9545 80.0923 30.8712 79.6264 30.7045C79.1605 30.5417 78.7723 30.3258 78.4616 30.0568C78.1548 29.7917 77.9105 29.5076 77.7287 29.2045L78.7969 28.4545C78.9181 28.6136 79.0715 28.7955 79.2571 29C79.4427 29.2083 79.6965 29.3883 80.0185 29.5398C80.3442 29.6951 80.7704 29.7727 81.2969 29.7727C82.0014 29.7727 82.5829 29.6023 83.0412 29.2614C83.4995 28.9205 83.7287 28.3864 83.7287 27.6591V25.8864H83.6151C83.5166 26.0455 83.3764 26.2424 83.1946 26.4773C83.0166 26.7083 82.759 26.9148 82.4219 27.0966C82.0885 27.2746 81.6378 27.3636 81.0696 27.3636C80.3651 27.3636 79.7325 27.197 79.1719 26.8636C78.6151 26.5303 78.1738 26.0455 77.848 25.4091C77.526 24.7727 77.3651 24 77.3651 23.0909C77.3651 22.197 77.5223 21.4186 77.8366 20.7557C78.151 20.089 78.5885 19.5739 79.1491 19.2102C79.7098 18.8428 80.3575 18.6591 81.0923 18.6591C81.6605 18.6591 82.1113 18.7538 82.4446 18.9432C82.7817 19.1288 83.0393 19.3409 83.2173 19.5795C83.3991 19.8144 83.5393 20.0076 83.6378 20.1591H83.7741V18.7727H85.0696V27.75C85.0696 28.5 84.8991 29.1098 84.5582 29.5795C84.2211 30.053 83.7666 30.3996 83.1946 30.6193C82.6264 30.8428 81.9938 30.9545 81.2969 30.9545ZM81.2514 26.1591C81.7893 26.1591 82.2438 26.036 82.6151 25.7898C82.9863 25.5436 83.2685 25.1894 83.4616 24.7273C83.6548 24.2652 83.7514 23.7121 83.7514 23.0682C83.7514 22.4394 83.6567 21.8845 83.4673 21.4034C83.2779 20.9223 82.9976 20.5455 82.6264 20.2727C82.2552 20 81.7969 19.8636 81.2514 19.8636C80.6832 19.8636 80.2098 20.0076 79.831 20.2955C79.456 20.5833 79.1738 20.9697 78.9844 21.4545C78.7988 21.9394 78.706 22.4773 78.706 23.0682C78.706 23.6742 78.8007 24.2102 78.9901 24.6761C79.1832 25.1383 79.4673 25.5019 79.8423 25.767C80.2211 26.0284 80.6908 26.1591 81.2514 26.1591ZM91.0696 27.6818C90.2817 27.6818 89.5904 27.4943 88.9957 27.1193C88.4048 26.7443 87.9427 26.2197 87.6094 25.5455C87.2798 24.8712 87.1151 24.0833 87.1151 23.1818C87.1151 22.2727 87.2798 21.4792 87.6094 20.8011C87.9427 20.1231 88.4048 19.5966 88.9957 19.2216C89.5904 18.8466 90.2817 18.6591 91.0696 18.6591C91.8575 18.6591 92.5469 18.8466 93.1378 19.2216C93.7325 19.5966 94.1946 20.1231 94.5241 20.8011C94.8575 21.4792 95.0241 22.2727 95.0241 23.1818C95.0241 24.0833 94.8575 24.8712 94.5241 25.5455C94.1946 26.2197 93.7325 26.7443 93.1378 27.1193C92.5469 27.4943 91.8575 27.6818 91.0696 27.6818ZM91.0696 26.4773C91.6681 26.4773 92.1605 26.3239 92.5469 26.017C92.9332 25.7102 93.2192 25.3068 93.4048 24.8068C93.5904 24.3068 93.6832 23.7652 93.6832 23.1818C93.6832 22.5985 93.5904 22.0549 93.4048 21.5511C93.2192 21.0473 92.9332 20.6402 92.5469 20.3295C92.1605 20.0189 91.6681 19.8636 91.0696 19.8636C90.4711 19.8636 89.9787 20.0189 89.5923 20.3295C89.206 20.6402 88.92 21.0473 88.7344 21.5511C88.5488 22.0549 88.456 22.5985 88.456 23.1818C88.456 23.7652 88.5488 24.3068 88.7344 24.8068C88.92 25.3068 89.206 25.7102 89.5923 26.017C89.9787 26.3239 90.4711 26.4773 91.0696 26.4773ZM102.571 23.9318V18.7727H103.912V27.5H102.571V26.0227H102.48C102.276 26.4659 101.957 26.8428 101.526 27.1534C101.094 27.4602 100.548 27.6136 99.8892 27.6136C99.3438 27.6136 98.8589 27.4943 98.4347 27.2557C98.0104 27.0133 97.6771 26.6496 97.4347 26.1648C97.1922 25.6761 97.071 25.0606 97.071 24.3182V18.7727H98.4119V24.2273C98.4119 24.8636 98.59 25.3712 98.946 25.75C99.3059 26.1288 99.7642 26.3182 100.321 26.3182C100.654 26.3182 100.993 26.233 101.338 26.0625C101.687 25.892 101.978 25.6307 102.213 25.2784C102.452 24.9261 102.571 24.4773 102.571 23.9318ZM110.163 18.7727V19.9091H105.641V18.7727H110.163ZM106.959 16.6818H108.3V25C108.3 25.3788 108.355 25.6629 108.464 25.8523C108.578 26.0379 108.722 26.1629 108.896 26.2273C109.074 26.2879 109.262 26.3182 109.459 26.3182C109.607 26.3182 109.728 26.3106 109.822 26.2955C109.917 26.2765 109.993 26.2614 110.05 26.25L110.322 27.4545C110.232 27.4886 110.105 27.5227 109.942 27.5568C109.779 27.5947 109.572 27.6136 109.322 27.6136C108.944 27.6136 108.572 27.5322 108.209 27.3693C107.849 27.2064 107.55 26.9583 107.311 26.625C107.076 26.2917 106.959 25.8712 106.959 25.3636V16.6818Z" fill="#707075"/>
</svg>
