<svg width="40" height="40" viewBox="0 0 40 40" fill="none" xmlns="http://www.w3.org/2000/svg">
<rect width="40" height="40" rx="10" fill="url(#paint0_linear_261_532)"/>
<rect width="40" height="40" rx="10" fill="#D9ECF2"/>
<path d="M14.1693 26.8307C13.7339 26.8307 13.3612 26.6758 13.0514 26.366C12.7416 26.0562 12.5865 25.6833 12.5859 25.2474V15.7474C12.5859 15.312 12.7411 14.9394 13.0514 14.6296C13.3618 14.3198 13.7344 14.1646 14.1693 14.1641H26.8359C27.2714 14.1641 27.6442 14.3192 27.9546 14.6296C28.2649 14.9399 28.4198 15.3125 28.4193 15.7474V25.2474C28.4193 25.6828 28.2644 26.0557 27.9546 26.366C27.6448 26.6764 27.2719 26.8313 26.8359 26.8307H14.1693ZM20.7108 21.1212C20.7831 21.1012 20.8523 21.0714 20.9182 21.0318L26.5193 17.5286C26.6248 17.4627 26.704 17.3803 26.7568 17.2816C26.8095 17.183 26.8359 17.074 26.8359 16.9547C26.8359 16.6908 26.7238 16.4929 26.4995 16.3609C26.2752 16.229 26.0443 16.2356 25.8068 16.3807L20.5026 19.7057L15.1984 16.3807C14.9609 16.2356 14.73 16.2324 14.5057 16.3712C14.2814 16.51 14.1693 16.7045 14.1693 16.9547C14.1693 17.0866 14.1957 17.2022 14.2484 17.3014C14.3012 17.4007 14.3804 17.4764 14.4859 17.5286L20.087 21.0318C20.153 21.0714 20.2224 21.1012 20.2952 21.1212C20.368 21.1413 20.4372 21.151 20.5026 21.1505C20.568 21.15 20.6375 21.1402 20.7108 21.1212Z" fill="black"/>
<defs>
<linearGradient id="paint0_linear_261_532" x1="20" y1="0" x2="20" y2="40" gradientUnits="userSpaceOnUse">
<stop stop-color="#D9ECF2"/>
<stop offset="1" stop-color="#70A6C0"/>
</linearGradient>
</defs>
</svg>
