<svg width="40" height="40" viewBox="0 0 40 40" fill="none" xmlns="http://www.w3.org/2000/svg">
<rect width="40" height="40" rx="10" fill="#D9ECF2"/>
<g clip-path="url(#clip0_260_490)">
<path d="M24.1936 28.8122C23.4692 28.8122 22.4517 28.5502 20.928 27.6989C19.0751 26.6598 17.642 25.7005 15.7991 23.8625C14.0223 22.0868 13.1577 20.9372 11.9475 18.7351C10.5804 16.2488 10.8135 14.9455 11.074 14.3885C11.3842 13.7227 11.8421 13.3246 12.434 12.9293C12.7702 12.7091 13.126 12.5203 13.4968 12.3653C13.534 12.3493 13.5685 12.3341 13.5993 12.3204C13.783 12.2376 14.0613 12.1126 14.4138 12.2462C14.6491 12.3345 14.8591 12.5152 15.1879 12.8399C15.8622 13.5049 16.7836 14.9859 17.1235 15.7133C17.3518 16.2035 17.5028 16.5271 17.5032 16.89C17.5032 17.3149 17.2894 17.6426 17.03 17.9963C16.9814 18.0627 16.9332 18.1261 16.8864 18.1877C16.604 18.5588 16.542 18.6661 16.5829 18.8576C16.6656 19.2424 17.2827 20.388 18.2969 21.3999C19.3111 22.4119 20.4237 22.9901 20.81 23.0724C21.0096 23.1151 21.1191 23.0506 21.5021 22.7581C21.557 22.7162 21.6134 22.6728 21.6724 22.6294C22.068 22.3351 22.3805 22.1269 22.7953 22.1269H22.7976C23.1586 22.1269 23.4678 22.2835 23.9799 22.5418C24.6478 22.8787 26.1734 23.7883 26.8425 24.4633C27.1679 24.7914 27.3494 25.0007 27.4381 25.2356C27.5717 25.5892 27.4459 25.8664 27.3639 26.052C27.3501 26.0828 27.3349 26.1165 27.319 26.154C27.1628 26.5242 26.9728 26.8792 26.7516 27.2146C26.3571 27.8046 25.9574 28.2615 25.2902 28.5721C24.9476 28.7341 24.5726 28.8162 24.1936 28.8122Z" fill="black"/>
</g>
<defs>
<clipPath id="clip0_260_490">
<rect width="19" height="19" fill="white" transform="translate(11 11)"/>
</clipPath>
</defs>
</svg>
