<svg width="44" height="44" viewBox="0 0 44 44" fill="none" xmlns="http://www.w3.org/2000/svg">
<rect width="44" height="44" rx="22" fill="#007AFF"/>
<path d="M26.8017 10H17.1921C16.5568 10 15.9476 10.2524 15.4984 10.7015C15.0492 11.1507 14.7969 11.76 14.7969 12.3952V31.6036C14.7969 32.9272 15.8697 34 17.1921 34H26.8005C27.4358 34 28.0452 33.7477 28.4946 33.2985C28.9439 32.8494 29.1966 32.2402 29.1969 31.6048V12.3952C29.1969 11.76 28.9445 11.1507 28.4953 10.7015C28.0462 10.2524 27.4369 10 26.8017 10ZM21.9969 32.8C21.1689 32.8 20.4969 32.2636 20.4969 31.6C20.4969 30.9364 21.1689 30.4 21.9969 30.4C22.8249 30.4 23.4969 30.9364 23.4969 31.6C23.4969 32.2636 22.8249 32.8 21.9969 32.8ZM26.7969 29.2H17.1969V12.4H26.7969V29.2Z" fill="white"/>
</svg>
