<svg width="24" height="24" viewBox="0 0 24 24" fill="none" xmlns="http://www.w3.org/2000/svg">
<path d="M10.8216 22C10.3716 22 9.98423 21.85 9.65956 21.55C9.3349 21.25 9.1389 20.8833 9.07156 20.45L8.84656 18.8C8.6299 18.7167 8.4259 18.6167 8.23456 18.5C8.04323 18.3833 7.85556 18.2583 7.67156 18.125L6.12156 18.775C5.7049 18.9583 5.28823 18.975 4.87156 18.825C4.4549 18.675 4.1299 18.4083 3.89656 18.025L2.72156 15.975C2.48823 15.5917 2.42156 15.1833 2.52156 14.75C2.62156 14.3167 2.84656 13.9583 3.19656 13.675L4.52156 12.675C4.5049 12.5583 4.49656 12.4457 4.49656 12.337V11.662C4.49656 11.554 4.5049 11.4417 4.52156 11.325L3.19656 10.325C2.84656 10.0417 2.62156 9.68333 2.52156 9.25C2.42156 8.81667 2.48823 8.40833 2.72156 8.025L3.89656 5.975C4.1299 5.59167 4.4549 5.325 4.87156 5.175C5.28823 5.025 5.7049 5.04167 6.12156 5.225L7.67156 5.875C7.8549 5.74167 8.04656 5.61667 8.24656 5.5C8.44656 5.38333 8.64656 5.28333 8.84656 5.2L9.07156 3.55C9.13823 3.11667 9.33423 2.75 9.65956 2.45C9.9849 2.15 10.3722 2 10.8216 2H13.1716C13.6216 2 14.0092 2.15 14.3346 2.45C14.6599 2.75 14.8556 3.11667 14.9216 3.55L15.1466 5.2C15.3632 5.28333 15.5676 5.38333 15.7596 5.5C15.9516 5.61667 16.1389 5.74167 16.3216 5.875L17.8716 5.225C18.2882 5.04167 18.7049 5.025 19.1216 5.175C19.5382 5.325 19.8632 5.59167 20.0966 5.975L21.2716 8.025C21.5049 8.40833 21.5716 8.81667 21.4716 9.25C21.3716 9.68333 21.1466 10.0417 20.7966 10.325L19.4716 11.325C19.4882 11.4417 19.4966 11.5543 19.4966 11.663V12.337C19.4966 12.4457 19.4799 12.5583 19.4466 12.675L20.7716 13.675C21.1216 13.9583 21.3466 14.3167 21.4466 14.75C21.5466 15.1833 21.4799 15.5917 21.2466 15.975L20.0466 18.025C19.8132 18.4083 19.4882 18.675 19.0716 18.825C18.6549 18.975 18.2382 18.9583 17.8216 18.775L16.3216 18.125C16.1382 18.2583 15.9466 18.3833 15.7466 18.5C15.5466 18.6167 15.3466 18.7167 15.1466 18.8L14.9216 20.45C14.8549 20.8833 14.6592 21.25 14.3346 21.55C14.0099 21.85 13.6222 22 13.1716 22H10.8216ZM12.0466 15.5C13.0132 15.5 13.8382 15.1583 14.5216 14.475C15.2049 13.7917 15.5466 12.9667 15.5466 12C15.5466 11.0333 15.2049 10.2083 14.5216 9.525C13.8382 8.84167 13.0132 8.5 12.0466 8.5C11.0632 8.5 10.2339 8.84167 9.55856 9.525C8.88323 10.2083 8.5459 11.0333 8.54656 12C8.54723 12.9667 8.8849 13.7917 9.55956 14.475C10.2342 15.1583 11.0632 15.5 12.0466 15.5Z" fill="#86868B"/>
</svg>
