<svg width="187" height="44" viewBox="0 0 187 44" fill="none" xmlns="http://www.w3.org/2000/svg">
<path d="M43 13C43.5304 13 44.0391 13.2107 44.4142 13.5858C44.7893 13.9609 45 14.4696 45 15V17C45 17.5304 44.7893 18.0391 44.4142 18.4142C44.0391 18.7893 43.5304 19 43 19H29C28.4696 19 27.9609 18.7893 27.5858 18.4142C27.2107 18.0391 27 17.5304 27 17V15C27 14.4696 27.2107 13.9609 27.5858 13.5858C27.9609 13.2107 28.4696 13 29 13H43ZM33 21C33.5304 21 34.0391 21.2107 34.4142 21.5858C34.7893 21.9609 35 22.4696 35 23V29C35 29.5304 34.7893 30.0391 34.4142 30.4142C34.0391 30.7893 33.5304 31 33 31H29C28.4696 31 27.9609 30.7893 27.5858 30.4142C27.2107 30.0391 27 29.5304 27 29V23C27 22.4696 27.2107 21.9609 27.5858 21.5858C27.9609 21.2107 28.4696 21 29 21H33ZM44 21C44.2652 21 44.5196 21.1054 44.7071 21.2929C44.8946 21.4804 45 21.7348 45 22C45 22.2652 44.8946 22.5196 44.7071 22.7071C44.5196 22.8946 44.2652 23 44 23H38C37.7348 23 37.4804 22.8946 37.2929 22.7071C37.1054 22.5196 37 22.2652 37 22C37 21.7348 37.1054 21.4804 37.2929 21.2929C37.4804 21.1054 37.7348 21 38 21H44ZM44 25C44.2652 25 44.5196 25.1054 44.7071 25.2929C44.8946 25.4804 45 25.7348 45 26C45 26.2652 44.8946 26.5196 44.7071 26.7071C44.5196 26.8946 44.2652 27 44 27H38C37.7348 27 37.4804 26.8946 37.2929 26.7071C37.1054 26.5196 37 26.2652 37 26C37 25.7348 37.1054 25.4804 37.2929 25.2929C37.4804 25.1054 37.7348 25 38 25H44ZM44 29C44.2652 29 44.5196 29.1054 44.7071 29.2929C44.8946 29.4804 45 29.7348 45 30C45 30.2652 44.8946 30.5196 44.7071 30.7071C44.5196 30.8946 44.2652 31 44 31H38C37.7348 31 37.4804 30.8946 37.2929 30.7071C37.1054 30.5196 37 30.2652 37 30C37 29.7348 37.1054 29.4804 37.2929 29.2929C37.4804 29.1054 37.7348 29 38 29H44Z" fill="#707075"/>
<path d="M58.7727 17.1136V15.8636H67.5V17.1136H63.8409V27.5H62.4318V17.1136H58.7727ZM71.8864 27.6818C71.0455 27.6818 70.3201 27.4962 69.7102 27.125C69.1042 26.75 68.6364 26.2273 68.3068 25.5568C67.9811 24.8826 67.8182 24.0985 67.8182 23.2045C67.8182 22.3106 67.9811 21.5227 68.3068 20.8409C68.6364 20.1553 69.0947 19.6212 69.6818 19.2386C70.2727 18.8523 70.9621 18.6591 71.75 18.6591C72.2045 18.6591 72.6534 18.7348 73.0966 18.8864C73.5398 19.0379 73.9432 19.2841 74.3068 19.625C74.6705 19.9621 74.9602 20.4091 75.1761 20.9659C75.392 21.5227 75.5 22.2083 75.5 23.0227V23.5909H68.7727V22.4318H74.1364C74.1364 21.9394 74.0379 21.5 73.8409 21.1136C73.6477 20.7273 73.3712 20.4223 73.0114 20.1989C72.6553 19.9754 72.2348 19.8636 71.75 19.8636C71.2159 19.8636 70.7538 19.9962 70.3636 20.2614C69.9773 20.5227 69.6799 20.8636 69.4716 21.2841C69.2633 21.7045 69.1591 22.1553 69.1591 22.6364V23.4091C69.1591 24.0682 69.2727 24.6269 69.5 25.0852C69.7311 25.5398 70.0511 25.8864 70.4602 26.125C70.8693 26.3598 71.3447 26.4773 71.8864 26.4773C72.2386 26.4773 72.5568 26.428 72.8409 26.3295C73.1288 26.2273 73.3769 26.0758 73.5852 25.875C73.7936 25.6705 73.9545 25.4167 74.0682 25.1136L75.3636 25.4773C75.2273 25.9167 74.9981 26.303 74.6761 26.6364C74.3542 26.9659 73.9564 27.2235 73.483 27.4091C73.0095 27.5909 72.4773 27.6818 71.8864 27.6818ZM77.5398 27.5V18.7727H78.8352V20.1364H78.9489C79.1307 19.6705 79.4242 19.3087 79.8295 19.0511C80.2348 18.7898 80.7216 18.6591 81.2898 18.6591C81.8655 18.6591 82.3447 18.7898 82.7273 19.0511C83.1136 19.3087 83.4148 19.6705 83.6307 20.1364H83.7216C83.9451 19.6856 84.2803 19.3277 84.7273 19.0625C85.1742 18.7936 85.7102 18.6591 86.3352 18.6591C87.1155 18.6591 87.7538 18.9034 88.25 19.392C88.7462 19.8769 88.9943 20.6326 88.9943 21.6591V27.5H87.6534V21.6591C87.6534 21.0152 87.4773 20.5549 87.125 20.2784C86.7727 20.0019 86.358 19.8636 85.8807 19.8636C85.267 19.8636 84.7917 20.0492 84.4545 20.4205C84.1174 20.7879 83.9489 21.2538 83.9489 21.8182V27.5H82.5852V21.5227C82.5852 21.0265 82.4242 20.6269 82.1023 20.3239C81.7803 20.017 81.3655 19.8636 80.858 19.8636C80.5095 19.8636 80.1837 19.9564 79.8807 20.142C79.5814 20.3277 79.339 20.5852 79.1534 20.9148C78.9716 21.2405 78.8807 21.6174 78.8807 22.0455V27.5H77.5398ZM91.446 30.7727V18.7727H92.7415V20.1591H92.9006C92.9991 20.0076 93.1354 19.8144 93.3097 19.5795C93.4877 19.3409 93.7415 19.1288 94.071 18.9432C94.4044 18.7538 94.8551 18.6591 95.4233 18.6591C96.1581 18.6591 96.8059 18.8428 97.3665 19.2102C97.9271 19.5777 98.3646 20.0985 98.679 20.7727C98.9934 21.447 99.1506 22.2424 99.1506 23.1591C99.1506 24.0833 98.9934 24.8845 98.679 25.5625C98.3646 26.2367 97.929 26.7595 97.3722 27.1307C96.8153 27.4981 96.1733 27.6818 95.446 27.6818C94.8854 27.6818 94.4366 27.589 94.0994 27.4034C93.7623 27.214 93.5028 27 93.321 26.7614C93.1392 26.5189 92.9991 26.3182 92.9006 26.1591H92.7869V30.7727H91.446ZM92.7642 23.1364C92.7642 23.7955 92.8608 24.3769 93.054 24.8807C93.2472 25.3807 93.5294 25.7727 93.9006 26.0568C94.2718 26.3371 94.7263 26.4773 95.2642 26.4773C95.8248 26.4773 96.2926 26.3295 96.6676 26.0341C97.0464 25.7348 97.3305 25.3333 97.5199 24.8295C97.7131 24.322 97.8097 23.7576 97.8097 23.1364C97.8097 22.5227 97.715 21.9697 97.5256 21.4773C97.34 20.9811 97.0578 20.589 96.679 20.3011C96.304 20.0095 95.8324 19.8636 95.2642 19.8636C94.7188 19.8636 94.2604 20.0019 93.8892 20.2784C93.518 20.5511 93.2377 20.9337 93.0483 21.4261C92.8589 21.9148 92.7642 22.4848 92.7642 23.1364ZM102.537 15.8636V27.5H101.196V15.8636H102.537ZM107.561 27.7045C107.008 27.7045 106.506 27.6004 106.055 27.392C105.605 27.1799 105.247 26.875 104.982 26.4773C104.716 26.0758 104.584 25.5909 104.584 25.0227C104.584 24.5227 104.682 24.1174 104.879 23.8068C105.076 23.4924 105.339 23.2462 105.669 23.0682C105.999 22.8902 106.362 22.7576 106.76 22.6705C107.161 22.5795 107.565 22.5076 107.97 22.4545C108.5 22.3864 108.93 22.3352 109.26 22.3011C109.593 22.2633 109.836 22.2008 109.987 22.1136C110.143 22.0265 110.22 21.875 110.22 21.6591V21.6136C110.22 21.053 110.067 20.6174 109.76 20.3068C109.457 19.9962 108.997 19.8409 108.379 19.8409C107.739 19.8409 107.237 19.9811 106.874 20.2614C106.51 20.5417 106.254 20.8409 106.107 21.1591L104.834 20.7045C105.061 20.1742 105.364 19.7614 105.743 19.4659C106.125 19.1667 106.542 18.9583 106.993 18.8409C107.447 18.7197 107.894 18.6591 108.334 18.6591C108.614 18.6591 108.936 18.6932 109.3 18.7614C109.667 18.8258 110.021 18.9602 110.362 19.1648C110.707 19.3693 110.993 19.678 111.22 20.0909C111.447 20.5038 111.561 21.0568 111.561 21.75V27.5H110.22V26.3182H110.152C110.061 26.5076 109.91 26.7102 109.697 26.9261C109.485 27.142 109.203 27.3258 108.851 27.4773C108.499 27.6288 108.069 27.7045 107.561 27.7045ZM107.766 26.5C108.296 26.5 108.743 26.3958 109.107 26.1875C109.474 25.9792 109.75 25.7102 109.936 25.3807C110.125 25.0511 110.22 24.7045 110.22 24.3409V23.1136C110.163 23.1818 110.038 23.2443 109.845 23.3011C109.656 23.3542 109.436 23.4015 109.186 23.4432C108.94 23.4811 108.699 23.5152 108.464 23.5455C108.233 23.572 108.046 23.5947 107.902 23.6136C107.554 23.6591 107.228 23.733 106.925 23.8352C106.625 23.9337 106.383 24.0833 106.197 24.2841C106.016 24.4811 105.925 24.75 105.925 25.0909C105.925 25.5568 106.097 25.9091 106.442 26.1477C106.79 26.3826 107.232 26.5 107.766 26.5ZM117.804 18.7727V19.9091H113.281V18.7727H117.804ZM114.599 16.6818H115.94V25C115.94 25.3788 115.995 25.6629 116.105 25.8523C116.219 26.0379 116.363 26.1629 116.537 26.2273C116.715 26.2879 116.902 26.3182 117.099 26.3182C117.247 26.3182 117.368 26.3106 117.463 26.2955C117.558 26.2765 117.634 26.2614 117.69 26.25L117.963 27.4545C117.872 27.4886 117.745 27.5227 117.582 27.5568C117.42 27.5947 117.213 27.6136 116.963 27.6136C116.584 27.6136 116.213 27.5322 115.849 27.3693C115.49 27.2064 115.19 26.9583 114.952 26.625C114.717 26.2917 114.599 25.8712 114.599 25.3636V16.6818ZM123.386 27.6818C122.545 27.6818 121.82 27.4962 121.21 27.125C120.604 26.75 120.136 26.2273 119.807 25.5568C119.481 24.8826 119.318 24.0985 119.318 23.2045C119.318 22.3106 119.481 21.5227 119.807 20.8409C120.136 20.1553 120.595 19.6212 121.182 19.2386C121.773 18.8523 122.462 18.6591 123.25 18.6591C123.705 18.6591 124.153 18.7348 124.597 18.8864C125.04 19.0379 125.443 19.2841 125.807 19.625C126.17 19.9621 126.46 20.4091 126.676 20.9659C126.892 21.5227 127 22.2083 127 23.0227V23.5909H120.273V22.4318H125.636C125.636 21.9394 125.538 21.5 125.341 21.1136C125.148 20.7273 124.871 20.4223 124.511 20.1989C124.155 19.9754 123.735 19.8636 123.25 19.8636C122.716 19.8636 122.254 19.9962 121.864 20.2614C121.477 20.5227 121.18 20.8636 120.972 21.2841C120.763 21.7045 120.659 22.1553 120.659 22.6364V23.4091C120.659 24.0682 120.773 24.6269 121 25.0852C121.231 25.5398 121.551 25.8864 121.96 26.125C122.369 26.3598 122.845 26.4773 123.386 26.4773C123.739 26.4773 124.057 26.428 124.341 26.3295C124.629 26.2273 124.877 26.0758 125.085 25.875C125.294 25.6705 125.455 25.4167 125.568 25.1136L126.864 25.4773C126.727 25.9167 126.498 26.303 126.176 26.6364C125.854 26.9659 125.456 27.2235 124.983 27.4091C124.509 27.5909 123.977 27.6818 123.386 27.6818ZM135.222 20.7273L134.017 21.0682C133.941 20.8674 133.83 20.6723 133.682 20.483C133.538 20.2898 133.341 20.1307 133.091 20.0057C132.841 19.8807 132.521 19.8182 132.131 19.8182C131.597 19.8182 131.152 19.9413 130.795 20.1875C130.443 20.4299 130.267 20.7386 130.267 21.1136C130.267 21.447 130.388 21.7102 130.631 21.9034C130.873 22.0966 131.252 22.2576 131.767 22.3864L133.062 22.7045C133.843 22.8939 134.424 23.1837 134.807 23.5739C135.189 23.9602 135.381 24.4583 135.381 25.0682C135.381 25.5682 135.237 26.0152 134.949 26.4091C134.665 26.803 134.267 27.1136 133.756 27.3409C133.244 27.5682 132.65 27.6818 131.972 27.6818C131.081 27.6818 130.345 27.4886 129.761 27.1023C129.178 26.7159 128.809 26.1515 128.653 25.4091L129.926 25.0909C130.047 25.5606 130.277 25.9129 130.614 26.1477C130.955 26.3826 131.4 26.5 131.949 26.5C132.574 26.5 133.07 26.3674 133.438 26.1023C133.809 25.8333 133.994 25.5114 133.994 25.1364C133.994 24.8333 133.888 24.5795 133.676 24.375C133.464 24.1667 133.138 24.0114 132.699 23.9091L131.244 23.5682C130.445 23.3788 129.858 23.0852 129.483 22.6875C129.112 22.286 128.926 21.7841 128.926 21.1818C128.926 20.6894 129.064 20.2538 129.341 19.875C129.621 19.4962 130.002 19.1989 130.483 18.983C130.968 18.767 131.517 18.6591 132.131 18.6591C132.994 18.6591 133.672 18.8485 134.165 19.2273C134.661 19.6061 135.013 20.1061 135.222 20.7273Z" fill="#707075"/>
</svg>
